<svg width="800" height="400" viewBox="0 0 800 400" fill="none" xmlns="http://www.w3.org/2000/svg">
  <g opacity="0.5">
    <!-- North America Dots -->
    <circle cx="150" cy="100" r="2" fill="white"/>
    <circle cx="180" cy="120" r="2" fill="white"/>
    <circle cx="160" cy="140" r="2" fill="white"/>
    <circle cx="200" cy="110" r="2" fill="white"/>
    <circle cx="170" cy="90" r="2" fill="white"/>
    
    <!-- Europe Dots -->
    <circle cx="400" cy="100" r="2" fill="white"/>
    <circle cx="420" cy="90" r="2" fill="white"/>
    <circle cx="440" cy="100" r="2" fill="white"/>
    <circle cx="410" cy="110" r="2" fill="white"/>
    <circle cx="430" cy="120" r="2" fill="white"/>
    
    <!-- Asia Dots -->
    <circle cx="500" cy="120" r="2" fill="white"/>
    <circle cx="520" cy="140" r="2" fill="white"/>
    <circle cx="540" cy="100" r="2" fill="white"/>
    <circle cx="560" cy="130" r="2" fill="white"/>
    <circle cx="580" cy="110" r="2" fill="white"/>
    
    <!-- Africa Dots -->
    <circle cx="420" cy="200" r="2" fill="white"/>
    <circle cx="440" cy="220" r="2" fill="white"/>
    <circle cx="400" cy="240" r="2" fill="white"/>
    <circle cx="420" cy="260" r="2" fill="white"/>
    <circle cx="440" cy="240" r="2" fill="white"/>
    
    <!-- South America Dots -->
    <circle cx="250" cy="250" r="2" fill="white"/>
    <circle cx="270" cy="270" r="2" fill="white"/>
    <circle cx="230" cy="290" r="2" fill="white"/>
    <circle cx="250" cy="310" r="2" fill="white"/>
    <circle cx="270" cy="290" r="2" fill="white"/>
    
    <!-- Australia Dots -->
    <circle cx="650" cy="280" r="2" fill="white"/>
    <circle cx="670" cy="300" r="2" fill="white"/>
    <circle cx="630" cy="320" r="2" fill="white"/>
    <circle cx="650" cy="340" r="2" fill="white"/>
    <circle cx="670" cy="320" r="2" fill="white"/>
  </g>
</svg> 